<?xml version="1.0" encoding="UTF-8" standalone="no"?>
<svg width="40px" height="50px" viewBox="0 0 40 50" version="1.1" xmlns="http://www.w3.org/2000/svg" xmlns:xlink="http://www.w3.org/1999/xlink">
    <!-- Generator: Sketch 39.1 (31720) - http://www.bohemiancoding.com/sketch -->
    <title>map-marker</title>
    <desc>Created with Sketch.</desc>
    <defs></defs>
    <g id="Symbols" stroke="none" stroke-width="1" fill="none" fill-rule="evenodd">
        <g id="footer" transform="translate(-967.000000, -134.000000)" fill="#00FFC8">
            <g id="blok-8---maps">
                <g id="map-marker" transform="translate(967.000000, 134.000000)">
                    <path d="M19.8863636,2.08333333 C9.74222488,2.08333333 2.09330144,10.14375 2.09330144,20.8333333 C2.09330144,33.2520833 16.687799,45.1854167 19.8863636,47.6520833 C23.0849282,45.1854167 37.6794258,33.2520833 37.6794258,20.8333333 C37.6794258,10.14375 30.0305024,2.08333333 19.8863636,2.08333333 M19.8863636,50 C19.6707536,50 19.4551435,49.9333333 19.2730263,49.8020833 C18.4880383,49.2375 0,35.7770833 0,20.8333333 C0,8.95625 8.54904306,0 19.8863636,0 C31.2236842,0 39.7727273,8.95625 39.7727273,20.8333333 C39.7727273,35.7770833 21.284689,49.2375 20.499701,49.8020833 C20.3175837,49.9333333 20.1019737,50 19.8863636,50" id="Fill-1"></path>
                    <path d="M19.8863636,10.4166667 C14.6928828,10.4166667 10.4665072,14.6229167 10.4665072,19.7916667 C10.4665072,24.9604167 14.6928828,29.1666667 19.8863636,29.1666667 C25.0798445,29.1666667 29.3062201,24.9604167 29.3062201,19.7916667 C29.3062201,14.6229167 25.0798445,10.4166667 19.8863636,10.4166667 M19.8863636,31.25 C13.5373804,31.25 8.37320574,26.1104167 8.37320574,19.7916667 C8.37320574,13.4729167 13.5373804,8.33333333 19.8863636,8.33333333 C26.2353469,8.33333333 31.3995215,13.4729167 31.3995215,19.7916667 C31.3995215,26.1104167 26.2353469,31.25 19.8863636,31.25" id="Fill-3"></path>
                </g>
            </g>
        </g>
    </g>
</svg>