<svg xmlns="http://www.w3.org/2000/svg" width="30" height="30"><path fill="#151751" d="M15 0c-8.3 0-15 6.7-15 15s6.7 15 15 15 15-6.7 15-15-6.7-15-15-15z"/><path fill="#fff" d="M22.4 21.2h-3v-5.4c0-1.3-.4-2.1-1.5-2.1-.8 0-1.3.6-1.6 1.1-.1.2-.1.5-.1.8v5.6h-3v-6.7c0-1.2 0-2.2-.1-3.1h2.6l.1 1.4h.1c.4-.6 1.4-1.6 3-1.6 2 0 3.5 1.3 3.5 4.2v5.8z"/><path fill="#fff" d="M9.8 10.2c-1 0-1.6-.7-1.6-1.5 0-.9.6-1.5 1.6-1.5s1.6.7 1.6 1.5c0 .9-.6 1.5-1.6 1.5z"/><rect x="8.3" y="11.4" fill="#fff" width="3" height="9.8"/></svg>