<svg xmlns="http://www.w3.org/2000/svg" width="534.7" height="115.1"><path fill="#AA0024" d="M56.047 1.063c-11.649 0-23.318.066-34.967.189-12.819.131-21.01 8.795-21.06 21.659-.086 22.948-.09 45.958 0 68.936.053 13.23 8.343 21.38 21.618 21.437 14.129.066 28.237.033 42.337.033 14.589 0 29.21-.123 43.807.062 3.387.045 4.455-.792 4.439-4.311-.144-28.738-.025-57.459-.123-86.185 0-12.881-8.2-21.507-20.998-21.639-11.698-.119-23.297-.189-35-.189l-.053.008zm.062 32.589c7.05 0 14.079.021 21.121.062 6.331.037 9.078 2.509 9.124 7.781.049 5.264-3.17 8.097-9.436 8.155-7.038.062-14.088 0-21.117 0h-.029c-6.882 0-13.78.049-20.657-.033-5.966-.078-9.066-2.887-9.095-7.97-.029-5.297 2.739-7.896 8.939-7.937 7.042-.041 14.1-.057 21.15-.057zm-.062 31.058c7.14 0 14.268-.004 21.409.033 5.711.029 8.848 3.158 8.75 8.343-.09 4.919-3.059 7.666-8.75 7.748-7.206.103-14.441.033-21.659.033h-.029c-7.05 0-14.108.074-21.158-.033-5.703-.086-8.664-2.833-8.75-7.781-.094-5.19 3.047-8.286 8.779-8.311 7.14-.033 14.268-.033 21.409-.033z"/><path fill="#2D3C49" d="M166.141 1.403c-4.102 0-8.179.033-12.281.062-7.284.053-9.768 2.525-9.78 9.748-.029 15.402 0 30.828 0 46.25v.033c0 15.73-.062 31.481 0 47.219.025 6.249 2.439 8.676 8.623 8.75 8.692.099 17.397-.049 26.09.062 14.511.185 25.178-6.496 30.91-19.409 5.88-13.271 3.58-25.979-6.717-36.72-1.433-1.49-2.139-2.345-.406-4.311 8.746-9.945 10.651-21.421 5.342-33.337-5.523-12.421-15.898-18.259-29.469-18.309-4.098-.021-8.208-.033-12.31-.037zm-3.199 15.319c5.572.185 11.148-.135 16.72.156 9.013.472 15.311 7.079 15.118 15.467-.197 9.037-6.336 14.901-15.841 15.028-5.247.074-10.511-.123-15.751.094-2.874.119-3.704-.916-3.56-3.654.205-3.934.062-7.875.062-11.809 0-3.938.111-7.879-.033-11.809-.086-2.447.579-3.56 3.281-3.47v-.004zm-.156 46.377c5.888.131 11.78-.193 17.66.156 9.481.558 16.789 8.233 16.781 17.159-.004 8.803-6.98 16.387-16.309 17.118-6.019.472-12.08.123-18.12.283-2.336.062-3.186-.78-3.125-3.125.127-4.738.033-9.473.033-14.219 0-4.747.09-9.505-.033-14.248-.062-2.332.776-3.174 3.125-3.125h-.012z"/><path fill="#2D3C49" d="M250.536 30.084c-14.638.3-29.678 13.25-28.717 31.218.394 7.366.234 14.782 0 22.16-.353 10.979 4.373 19.228 12.971 25.589 12.33 9.136 33.25 6.919 42.16-4.439 3.416-4.361 3.363-8.003-.156-11.341-3.457-3.277-7.366-3.063-11.279.595-6.04 5.646-12.86 6.902-19.311 3.593-6.841-3.511-9.551-9.124-8.906-17.561.209-2.681 1.564-2.767 3.531-2.751 5.252.049 10.491 0 15.751 0h8.873c15.71 0 17.081-1.429 16.338-17.159-.825-17.607-14.1-30.257-31.255-29.904zm1.564 15.718c7.485.123 13.299 5.547 13.808 12.618.172 2.394-.595 3.24-2.969 3.158-3.761-.127-7.543-.033-11.308-.033-3.601 0-7.214-.115-10.811.033-2.521.103-3.49-.587-3.219-3.346.719-7.337 6.676-12.568 14.498-12.437v.008z"/><path fill="#2D3C49" d="M470.933 63.622c0 7.383.263 14.777-.062 22.144-.538 12.207-6.455 21.405-17.545 26.344-11.632 5.178-22.797 3.433-32.491-5.128-6.06-5.346-9.477-12.199-9.579-20.296-.201-15.747-.156-31.497-.074-47.26.025-4.862 3.092-7.933 7.469-8.048 4.517-.119 7.826 3.088 7.863 8.159.107 14.761-.086 29.53.09 44.304.131 10.963 9.111 17.779 18.793 14.593 6.245-2.053 9.604-6.676 9.649-13.817.09-13.944.016-27.888.041-41.84.004-1.634-.004-3.301.292-4.894.813-4.393 3.86-6.565 8.035-6.393 4.168.172 7.296 2.521 7.411 7.029.214 8.36.062 16.732.062 25.096h.045v.008z"/><path fill="#2D3C49" d="M347.343 78.403c0 8.692.021 17.385-.008 26.077-.016 6.102-2.57 8.972-7.859 8.947-5.1-.025-7.806-3.1-7.818-9.148-.041-17.553-.123-35.102.074-52.639.041-3.617-.772-4.788-4.541-4.619-5.999.263-9.271-2.743-9.288-7.649-.012-4.722 3.564-8.191 9.312-7.744 5.654.439 4.558-3.104 4.398-6.126-1.076-19.935 17.13-28.57 31.612-24.636 5.818 1.581 9.477 5.112 9.867 9.629.546 6.311-4.283 9.887-10.179 7.325-3.712-1.614-7.309-2.862-11.32-1.211-3.429 1.408-6.27 11.456-3.987 14.289.731.912 1.807.571 2.739.583 3.934.033 7.871-.025 11.809.025 6.163.074 9.14 2.62 9.181 7.76.045 5.399-2.636 7.785-8.922 7.855-3.938.041-7.879.156-11.809-.045-2.574-.131-3.367.673-3.326 3.289.16 9.349.066 18.703.066 28.052v-.012z"/><path fill="#2D3C49" d="M509.119 29.952c6.845.283 14.334 3.778 20.222 10.593 3.018 3.494 2.993 8.906.033 11.546-3.769 3.363-8.216 3.268-11.649-.891-3.901-4.726-8.643-6.225-14.42-5.165-3.153.575-5.498 2.34-6.212 5.555-.698 3.158 1.059 5.264 3.597 6.89 3.609 2.316 7.551 3.905 11.55 5.358 3.708 1.347 7.218 3.067 10.598 5.091 8.59 5.149 12.433 12.733 11.694 22.657-.731 9.867-6.34 16.325-14.958 20.238-11.587 5.264-26.845 2.809-34.954-5.264-4.213-4.192-4.915-8.676-1.909-12.195 3.498-4.098 8.019-4.049 12.355.131 5.469 5.272 13.969 6.147 19.783 2.037 5.691-4.024 5.732-10.228-.016-14.108-4.512-3.047-9.707-4.66-14.687-6.734-8.339-3.482-15.997-7.703-18.194-17.652-3.392-15.356 8.007-28.216 27.169-28.089z"/><path fill="#2D3C49" d="M309.157 57.463c.004 15.574.053 31.152-.016 46.726-.029 6.348-2.907 9.317-8.356 9.004-4.467-.255-7.017-2.607-7.025-7.132-.07-32.466-.066-64.916-.012-97.394.004-4.451 3.03-7.305 7.383-7.428 4.586-.131 7.941 2.977 7.978 8.015.119 16.067.041 32.138.049 48.209z"/><path fill="#2D3C49" d="M396.615 72.244c0 10.667.029 21.331-.012 31.994-.025 6.336-2.41 9.103-7.678 9.107-5.223.004-7.793-2.821-7.81-9.091-.066-21.166-.057-42.333-.004-63.479.016-5.913 2.989-9.325 7.793-9.329 4.866-.004 7.678 3.338 7.699 9.312.041 10.499.012 21.002.012 31.501v-.016z"/><path fill="#2E3D4A" d="M396.615 11.065c.012 8.639-2.809 11.981-9.046 11.222-5.293-.649-7.736-6.167-6.352-14.375.838-4.968 4.808-7.633 9.739-6.385 5.321 1.351 5.941 5.461 5.658 9.538z"/></svg>