<svg xmlns="http://www.w3.org/2000/svg" viewBox="0 0 216 69.9" enable-background="new 0 0 216 69.9"><polyline fill="#0023A0" points="76.1,68.9 87,1.2 104.5,1.2 93.6,68.9 76.1,68.9"/><path fill="#0023A0" d="M157 2.8c-3.5-1.4-8.9-2.8-15.7-2.8-17.3 0-29.5 9.2-29.6 22.3-.1 9.7 8.7 15.2 15.3 18.4 6.8 3.3 9.1 5.4 9.1 8.4 0 4.5-5.4 6.6-10.5 6.6-7 0-10.7-1-16.5-3.6l-2.2-1.1-2.4 15.2c4.1 1.9 11.6 3.5 19.5 3.6 18.4 0 30.3-9.1 30.4-23.1.1-7.7-4.6-13.6-14.7-18.4-6.1-3.1-9.9-5.2-9.8-8.4 0-2.8 3.2-5.8 10-5.8 5.7-.1 9.9 1.2 13.1 2.6l1.6.8 2.4-14.7"/><path fill="#0023A0" d="M201.9 1.2h-13.5c-4.2 0-7.3 1.2-9.2 5.6l-26 62.1h18.4s3-8.3 3.7-10.2h22.4c.5 2.4 2.1 10.1 2.1 10.1h16.2l-14.1-67.6m-21.6 43.7c1.4-3.9 7-18.9 7-18.9-.1.2 1.4-3.9 2.3-6.5l1.2 5.8s3.4 16.2 4 19.5c-2.7.1-11.1.1-14.5.1z"/><path fill="#0023A0" d="M61.4 1.2l-17.1 46.2-1.8-9.4c-3.2-10.8-13.1-22.5-24.2-28.4l15.7 59.2h18.5l27.5-67.6h-18.6"/><path fill="#FFA000" d="M28.4 1.2h-28.2l-.2 1.4c21.9 5.6 36.5 19.1 42.5 35.4l-6.1-31.1c-1.1-4.3-4.2-5.6-8-5.7z"/></svg>