<svg xmlns="http://www.w3.org/2000/svg" viewBox="0 0 144 86.2" enable-background="new 0 0 144 86.2"><circle fill="#ED1C2E" cx="100.9" cy="43.1" r="43.1"/><path fill="#009DDD" d="M67.6 70.4c-1.2-1.4-2.3-3-3.3-4.6h15.3c.9-1.5 1.7-3 2.5-4.6h-20.2c-.7-1.5-1.3-3-1.8-4.6h23.9c1.4-4.3 2.2-8.9 2.2-13.7 0-3.1-.3-6.2-1-9.1h-26.4c.3-1.6.8-3.1 1.2-4.6h23.9c-.5-1.6-1.1-3.1-1.8-4.6h-20.2c.7-1.6 1.6-3.1 2.5-4.6h15.3c-1-1.6-2.1-3.1-3.3-4.6h-8.7c1.3-1.6 2.8-3.1 4.3-4.6-7.6-6.6-17.8-10.8-28.9-10.8-23.8 0-43.1 19.3-43.1 43.1s19.3 43.1 43.1 43.1c11.1 0 21.3-4.2 28.9-11.2 1.6-1.4 3-2.9 4.4-4.6h-8.8z"/><g fill="#003473"><path d="M71.4 54.7c-1.8.5-3.6.7-5.5.7-6 0-9.1-2.7-9.1-8 0-6.1 4-10.6 9.4-10.6 4.4 0 7.2 2.5 7.2 6.5 0 1.3-.2 2.6-.7 4.4h-10.7c-.4 2.6 1.5 3.7 4.7 3.7 1.9 0 3.6-.3 5.5-1.1l-.8 4.4zm-2.9-10.6c0-.4.6-3.1-2.5-3.2-1.7 0-2.9 1.1-3.4 3.2h5.9z"/><path d="M75 42.9c0 2.3 1.3 3.8 4.2 5 2.2.9 2.6 1.2 2.6 2 0 1.1-1 1.6-3.1 1.6-1.6 0-3.1-.2-4.9-.7l-.8 4.1c1.6.4 3.7.5 5.7.5 5.8 0 8.4-1.9 8.4-6 0-2.5-1.1-3.9-3.8-5-2.3-.9-2.6-1.1-2.6-1.9 0-1 .9-1.5 2.7-1.5 1.1 0 2.5.1 3.9.3l.8-4.1c-1.4-.2-3.6-.4-4.8-.4-6.2.1-8.3 2.8-8.3 6.1z"/><path d="M53.8 55.2h-4.5l.1-1.9c-1.4 1.5-3.2 2.2-5.7 2.2-2.9 0-4.9-2-4.9-4.9 0-4.4 3.5-6.9 9.5-6.9.6 0 1.4 0 2.2.1.2-.6.2-.8.2-1.2 0-1.2-.9-1.6-3.5-1.6-2.5 0-4.2.4-5.7.8l.8-4c2.7-.7 4.4-.9 6.4-.9 4.6 0 7.1 1.8 7.1 5.2 0 .9-.3 2.7-.4 3.5-.2 1.2-1.4 8-1.6 9.6zm-3.9-8c-.6-.1-.8-.1-1.2-.1-3.1 0-4.6.9-4.6 2.7 0 1.1.8 1.8 1.9 1.8 2.2 0 3.8-1.8 3.9-4.4z"/><path d="M96.5 54.9c-1.5.4-2.6.6-3.9.6-2.7 0-4.2-1.4-4.2-3.9-.1-.7.6-3.9.7-4.7.2-.9 2.5-13.8 2.5-13.8h5.4l-.8 4.3h2.7l-.7 4.4h-2.7s-1.5 7.6-1.5 8.1c0 .9.6 1.3 1.8 1.3.6 0 1.1-.1 1.4-.2l-.7 3.9z"/><path d="M120.3 36.9c-3.9 0-7 1.6-8.7 4.3l1.5-4c-2.8-1-4.7.4-6.3 2.6 0 0-.3.4-.6.7v-3.1h-5c-.7 5.5-1.9 11.1-2.8 16.7l-.2 1.2h5.4c.5-2.8.9-5.1 1.3-6.9 1.1-5 3.1-6.5 6-5.8-.7 1.4-1 3.1-1 4.9 0 4.5 2.4 8.1 8.4 8.1 6.1 0 10.5-3.2 10.5-10.6-.1-4.6-3-8.1-8.5-8.1zm-1.6 14.2c-1.9 0-3.1-1.6-3.1-4 0-2.8 1.7-6 4.4-6 2.2 0 2.9 1.7 2.9 3.6.1 4-1.6 6.4-4.2 6.4z"/><polygon points="36.4,55.2 31,55.2 34.2,38.4 26.9,55.2 22,55.2 21.1,38.5 17.9,55.2 13,55.2 17.2,33.3 25.5,33.3 26.2,45.5 31.5,33.3 40.6,33.3"/></g><g fill="#fff"><path d="M72.7 53.4c-1.8.5-3.6.7-5.5.7-6 0-9.1-2.7-9.1-8 0-6.1 4-10.6 9.4-10.6 4.4 0 7.2 2.5 7.2 6.5 0 1.3-.2 2.6-.7 4.4h-10.6c-.4 2.6 1.5 3.7 4.7 3.7 1.9 0 3.6-.3 5.5-1.1l-.9 4.4zm-2.8-10.6c0-.4.6-3.1-2.5-3.2-1.7 0-2.9 1.1-3.4 3.2h5.9z"/><path d="M76.4 41.6c0 2.3 1.3 3.8 4.2 5 2.2.9 2.6 1.2 2.6 2 0 1.1-1 1.6-3.1 1.6-1.6 0-3.1-.2-4.9-.7l-.8 4.1c1.6.4 3.7.5 5.7.5 5.8 0 8.4-1.9 8.4-6 0-2.5-1.1-3.9-3.8-5-2.4-.9-2.7-1.1-2.7-1.9 0-1 .9-1.5 2.7-1.5 1.1 0 2.5.1 3.9.3l.8-4.1c-1.4-.2-3.6-.4-4.8-.4-6.2 0-8.3 2.8-8.2 6.1z"/><path d="M55.2 53.8h-4.5l.1-1.9c-1.4 1.5-3.2 2.2-5.7 2.2-2.9 0-4.9-2-4.9-4.9 0-4.4 3.5-6.9 9.5-6.9.6 0 1.4 0 2.2.1.2-.6.2-.8.2-1.2 0-1.2-.9-1.6-3.5-1.6-2.5 0-4.2.4-5.7.8l.8-4c2.7-.7 4.4-.9 6.4-.9 4.6 0 7.1 1.8 7.1 5.2 0 .9-.3 2.7-.4 3.5-.2 1.3-1.5 8-1.6 9.6zm-4-8c-.6-.1-.8-.1-1.2-.1-3.1 0-4.6.9-4.6 2.7 0 1.1.8 1.8 1.9 1.8 2.3.1 3.8-1.7 3.9-4.4z"/><path d="M97.8 53.5c-1.5.4-2.6.6-3.9.6-2.7 0-4.2-1.4-4.2-3.9-.1-.7.6-3.9.7-4.7.2-.9 2.5-13.8 2.5-13.8h5.3l-.8 4.3h2.7l-.7 4.4h-2.7s-1.5 7.6-1.5 8.1c0 .9.6 1.3 1.8 1.3.6 0 1.1-.1 1.4-.2l-.6 3.9z"/><path d="M124.3 43.4c0 4-1.7 6.4-4.3 6.4-1.9 0-3.1-1.6-3.1-4 0-2.8 1.7-6 4.4-6 2.3 0 3 1.7 3 3.6zm5.8.1c0-4.5-2.9-7.9-8.4-7.9-6.3 0-10.5 4.2-10.5 10.5 0 4.5 2.4 8.1 8.4 8.1 6.1-.1 10.5-3.3 10.5-10.7z"/><path d="M102.6 35.9c-.7 5.5-1.9 11.1-2.8 16.7l-.2 1.2h5.4c1.9-10.7 2.6-13.7 6.7-12.7l2-5.1c-2.8-1-4.7.4-6.3 2.6.1-1 .4-1.9.4-2.7h-5.2z"/><polygon points="37.7,53.8 32.4,53.8 35.5,37 28.2,53.8 23.3,53.8 22.4,37.1 19.2,53.8 14.4,53.8 18.5,32 26.9,32 27.3,45.5 33.2,32 41.9,32"/></g></svg>