<svg xmlns="http://www.w3.org/2000/svg" viewBox="0 0 195 170" enable-background="new 0 0 195 170"><rect x="21.7" y="95.7" width="31.2" height="51.9"/><path d="M55.3 69.8c0 9.8-7.9 17.7-17.7 17.7-9.8 0-17.7-7.9-17.7-17.7 0-9.8 7.9-17.7 17.7-17.7 9.8 0 17.7 7.9 17.7 17.7z"/><path d="M112.1 0h-112.1v170h112.1c24.5-.3 43.9-6.4 57.7-18.1 16.7-14.3 25.2-36.8 25.2-66.9 0-14.4-2.2-27.3-6.6-38.4-4.2-10.6-10.5-19.6-18.5-26.7-14.2-12.6-34.2-19.5-57.8-19.9zm-2.1 11.3c21.7 0 39.8 5.9 52.4 17 14.1 12.6 21.3 31.7 21.3 56.7 0 49.6-24.1 73.7-73.7 73.7h-98.7v-147.4h98.7z"/><path fill="#CD0067" d="M106.9 147.6h-39.6v-122.6h38c33.1 0 68.2 13 68.2 61.5 0 51.2-35.2 61.1-68.2 61.1h1.6z"/><path fill="#fff" d="M60.4 56.7h10.9c2.5 0 4.3.2 5.6.6 1.7.5 3.2 1.4 4.4 2.7 1.2 1.3 2.2 2.9 2.8 4.8.6 1.9 1 4.2 1 7 0 2.4-.3 4.5-.9 6.3-.7 2.1-1.8 3.9-3.2 5.2-1 1-2.4 1.8-4.2 2.4-1.3.4-3.1.6-5.3.6h-11.1v-29.6zm6 5v19.5h4.5c1.7 0 2.9-.1 3.6-.3 1-.2 1.8-.6 2.4-1.2.6-.6 1.2-1.5 1.6-2.8.4-1.3.6-3.1.6-5.4 0-2.3-.2-4-.6-5.2-.4-1.2-1-2.2-1.7-2.9-.8-.7-1.7-1.2-2.8-1.4-.8-.2-2.5-.3-4.9-.3h-2.7z"/><path fill="#fff" d="M91.9 86.2v-29.5h21.8v5h-15.9v6.5h14.8v5h-14.8v8h16.5v5h-22.4z"/><g fill="#fff"><path d="M147.6 86.2h-6.5l-2.6-6.7h-11.8l-2.4 6.7h-6.3l11.5-29.5h6.3l11.8 29.5zm-11-11.7l-4.1-10.9-4 10.9h8.1z"/><path d="M127.4 75.3h10.4l-5.2-14.1-5.2 14.1zm5.2-9.4c.9 2.4 2.4 6.4 2.9 7.8h-5.7c.4-1.4 1.9-5.4 2.8-7.8z"/></g><path fill="#fff" d="M152.6 86.2v-29.3h5.9v24.3h14.8v5h-20.7z"/></svg>