<svg xmlns="http://www.w3.org/2000/svg" xmlns:xlink="http://www.w3.org/1999/xlink" viewBox="0 0 85 55" enable-background="new 0 0 85 55"><defs><rect id="a" width="85" height="55"/></defs><clipPath id="b"><use xlink:href="#a" overflow="visible"/></clipPath><path clip-path="url(#b)" fill="#005397" d="M9.6 16.4h3.2c2.1 0 3.1-1.4 3.1-2.6 0-.9-.5-1.8-1.6-2.1.7-.4 1-1.1 1-1.7 0-1.1-.8-2.2-2.8-2.2h-2.9v8.6zm2.1-1.6v-1.9h1c.8 0 1.2.3 1.2.9 0 .7-.4 1-1.4 1h-.8zm0-3.6v-1.8h.6c.8 0 1.1.4 1.1.9s-.4.9-1.1.9h-.6zm9.3 5.2h1.6c-.1-.3-.1-.8-.1-1.2v-2.8c0-1.5-.8-2.4-2.7-2.4-1 0-1.8.2-2.6.6l.6 1.2c.4-.2 1.1-.4 1.6-.4.7 0 1.1.2 1.1.8v.1h-1c-.6 0-1.2.1-1.7.4-.7.3-1.1.9-1.1 1.7 0 1.2.9 2 2.1 2 .8 0 1.3-.3 1.8-.7l.4.7zm-.5-2.7v1.2c-.1 0-.5.1-.9.1-.5 0-.8-.2-.8-.6 0-.3.1-.4.3-.5.2-.1.4-.2.8-.2h.6zm3.3 2.7h2v-4.2c.4-.3.9-.5 1.3-.5.7 0 .8.6.8 1.2v3.5h2v-4.1c0-1.9-1.1-2.3-2.1-2.3-.8 0-1.5.3-2.1.8l-.2-.6h-1.7v6.2zm10.4.2c.9 0 1.8-.3 2.3-.6l-.5-1.4c-.5.3-.9.4-1.4.4-.9 0-1.6-.6-1.6-1.7 0-.9.6-1.7 1.6-1.7.6 0 1.1.2 1.6.5v-1.6c-.3-.2-.9-.5-1.8-.5-1.8 0-3.5 1.3-3.5 3.3 0 1.9 1.2 3.3 3.3 3.3zm6.1 0c1.9 0 3.3-1.4 3.3-3.3s-1.4-3.2-3.3-3.2c-2 0-3.3 1.4-3.3 3.2 0 1.9 1.3 3.3 3.3 3.3zm0-1.6c-.9 0-1.3-.7-1.3-1.7s.4-1.7 1.3-1.7 1.3.7 1.3 1.7-.4 1.7-1.3 1.7zm4.3 1.4h2v-4.2c.4-.3.9-.5 1.3-.5.8 0 .9.6.9 1.2v3.5h2v-4.1c0-1.9-1.1-2.3-2.1-2.3-.8 0-1.5.3-2.1.8l-.2-.6h-1.7l-.1 6.2zm10.1.2c.6 0 1.5-.2 2-.5l-.6-1.3c-.2.1-.6.3-.9.3-.4 0-.6-.2-.6-.8v-2.5h1.5l.5-1.5h-1.9v-2l-2 .6v1.5h-1.2v1.5h1.2v3c-.1 1 .7 1.7 2 1.7zm6.6-.2h1.7c-.1-.3-.1-.8-.1-1.2v-2.8c0-1.5-.8-2.4-2.7-2.4-1 0-1.9.2-2.6.6l.6 1.2c.5-.2 1.1-.4 1.6-.4.7 0 1.1.2 1.1.8v.1h-1c-.6 0-1.2.1-1.7.4-.6.3-1.1.9-1.1 1.7 0 1.2.9 2 2.1 2 .8 0 1.3-.3 1.8-.7l.3.7zm-.5-2.7v1.2c-.1.1-.5.2-.9.2-.5 0-.8-.2-.8-.6 0-.3.1-.4.3-.5.2-.1.4-.2.7-.2l.7-.1zm6.4 2.9c.9 0 1.8-.3 2.3-.6l-.5-1.4c-.5.3-.9.4-1.4.4-.9 0-1.6-.6-1.6-1.7 0-.9.6-1.7 1.6-1.7.6 0 1.1.2 1.6.5v-1.6c-.3-.2-.9-.5-1.8-.5-1.8 0-3.4 1.3-3.4 3.3-.1 1.9 1.1 3.3 3.2 3.3zm5.8 0c.6 0 1.5-.2 2-.5l-.6-1.3c-.2.1-.6.3-.9.3-.4 0-.6-.2-.6-.8v-2.5h1.5l.4-1.5h-1.9v-2l-2 .6v1.5h-1.2v1.5h1.2v3c0 1 .8 1.7 2.1 1.7z"/><defs><rect id="c" width="85" height="55"/></defs><clipPath id="d"><use xlink:href="#c" overflow="visible"/></clipPath><path clip-path="url(#d)" fill="#005397" d="M9.6 47.1h2v-5.2c.2.3.4.6.6.8l1.6 2.2h.9l1.4-2.1.6-.9v5.2h2v-8.5h-1.8l-1.9 2.9c-.3.4-.5.8-.6 1.1-.2-.3-.4-.6-.7-1l-2.1-3h-2v8.5zm10.6 0h2v-6.1h-2v6.1zm1-6.8c.7 0 1.2-.5 1.2-1.1 0-.6-.5-1.1-1.2-1.1s-1.2.5-1.2 1.1c0 .6.5 1.1 1.2 1.1zm1.7 6.3c.6.4 1.5.7 2.6.7 1.4 0 2.7-.5 2.7-2 0-2.2-2.9-1.9-2.9-2.6 0-.2.2-.4.7-.4.7 0 1.3.2 1.9.4v-1.6c-.6-.2-1.2-.3-2-.3-1.5 0-2.5.8-2.5 2 0 2.1 2.9 1.7 2.9 2.5 0 .3-.4.4-.9.4-.6 0-1.2-.2-1.8-.5l-.7 1.4zm8.9.6c.6 0 1.5-.2 2-.5l-.6-1.3c-.2.1-.6.3-.9.3-.4 0-.6-.2-.6-.8v-2.4h1.4l.4-1.5h-1.9v-2l-2 .5v1.5h-1.2v1.5h1.2v2.9c.2 1.1 1 1.8 2.2 1.8zm8.4-2.6v-.5c0-2.1-1.1-3.3-2.9-3.3-2 0-3 1.5-3 3.3 0 1.6.9 3.1 3.4 3.1.8 0 1.6-.2 2.3-.6l-.6-1.3c-.5.2-.9.4-1.6.4-.8 0-1.5-.3-1.5-1.1h3.9zm-4-1.2c0-.5.3-1.1 1-1.1s1 .5 1 1.1h-2zm4.9 3.7h2v-4.2c.4-.3.7-.4 1.1-.4.2 0 .5 0 .8.2l.7-1.6c-.3-.2-.7-.3-1-.3-.7 0-1.2.3-1.7.8l-.2-.6h-1.7v6.1zm13.8-2.1c-.6.4-1.3.6-2.2.6-1.6 0-2.6-1.1-2.6-2.7 0-1.5.8-2.8 2.7-2.8.8 0 1.6.2 2.3.6v-1.8c-.6-.2-1.4-.4-2.4-.4-2.9 0-4.7 2-4.7 4.4 0 2.5 1.5 4.3 4.5 4.3.9 0 1.9-.2 3-.7l-.6-1.5zm5.4 2.1h1.6c-.1-.3-.1-.8-.1-1.2v-2.7c0-1.5-.8-2.3-2.7-2.3-1 0-1.8.2-2.5.6l.6 1.2c.4-.2 1-.4 1.6-.4.7 0 1.1.2 1.1.8v.1h-1c-.6 0-1.2.2-1.6.4-.6.3-1 .8-1 1.7 0 1.2.9 2 2.1 2 .8 0 1.3-.3 1.7-.7l.2.5zm-.5-2.7v1.1c-.1.1-.5.2-.9.2-.5 0-.8-.2-.8-.6 0-.3.1-.4.3-.5.2-.1.4-.2.7-.2h.7zm2.9 2.2c.6.4 1.5.7 2.6.7 1.4 0 2.7-.5 2.7-2 0-2.2-2.9-1.9-2.9-2.6 0-.2.2-.4.7-.4.7 0 1.3.2 1.9.4v-1.6c-.6-.2-1.2-.3-2-.3-1.5 0-2.5.8-2.5 2 0 2.1 2.9 1.7 2.9 2.5 0 .3-.4.4-.9.4-.6 0-1.2-.2-1.8-.5l-.7 1.4zm6.2.5h2v-4.1c.4-.3.9-.5 1.2-.5.7 0 .8.5.8 1.2v3.4h2v-4c0-1.9-1.1-2.3-2.1-2.3-.8 0-1.5.3-2 .8v-3.6h-2l.1 9.1z"/><path fill="#005397" d="M26.9 31.5h12.1l6.5-7.1h12.2l-10.2 11.2h-37.9v-7.5h20.3l-3 3.4z"/><path fill="#FFD700" d="M57.7 24.4h-12.2l-6.5 7.1h-12.2l10.3-11.2h37.9v7.5h-20.4l3.1-3.4z"/><path fill="#005397" d="M76 55h-67c-4.7 0-6.9-2.5-7.9-4.5-1.1-2.2-1.1-4.3-1.1-4.4v-37.2c0-4.6 2.5-6.8 4.6-7.8 2.2-1.1 4.4-1.1 4.4-1.1h67c4.7 0 6.9 2.5 7.9 4.5 1.1 2.2 1.1 4.4 1.1 4.4v37.1c0 4.6-2.5 6.8-4.6 7.8-2.2 1.2-4.4 1.2-4.4 1.2zm-67-53c-.2 0-7 .1-7 6.9v37.1c0 .3.1 7 7.1 7h66.9c.3 0 7.1-.1 7.1-7v-37.1c0-.3-.1-7-7.1-7l-67 .1z"/></svg>